<?xml version="1.0" standalone="no"?>
<!DOCTYPE svg PUBLIC "-//W3C//DTD SVG 20010904//EN"
 "http://www.w3.org/TR/2001/REC-SVG-20010904/DTD/svg10.dtd">
<svg version="1.0" xmlns="http://www.w3.org/2000/svg"
 width="2816.000000pt" height="1536.000000pt" viewBox="0 0 2816.000000 1536.000000"
 preserveAspectRatio="xMidYMid meet">

<g transform="translate(0.000000,1536.000000) scale(0.100000,-0.100000)"
fill="#000000" stroke="none">
<path d="M11097 15344 c-355 -43 -675 -122 -952 -236 -71 -29 -277 -133 -360
-181 -382 -224 -750 -576 -985 -942 -93 -145 -237 -438 -295 -599 -78 -219
-136 -480 -166 -756 -19 -172 -17 -634 4 -790 43 -313 77 -468 151 -685 245
-723 705 -1235 1522 -1698 82 -46 495 -252 595 -296 30 -13 140 -62 244 -108
105 -47 294 -130 420 -185 127 -55 289 -128 360 -162 459 -219 795 -489 922
-739 42 -85 57 -133 78 -251 39 -228 -8 -453 -135 -641 -103 -152 -259 -261
-490 -343 -458 -161 -1078 -69 -1530 228 -253 167 -460 386 -695 739 -106 160
-143 193 -217 198 -47 4 -59 0 -105 -29 -29 -18 -99 -71 -155 -118 -57 -47
-195 -159 -308 -249 -113 -91 -236 -190 -275 -221 -238 -192 -374 -300 -424
-338 -84 -65 -112 -93 -132 -137 -37 -80 -21 -126 116 -337 373 -572 859
-1009 1435 -1292 389 -191 713 -288 1230 -368 131 -20 181 -23 535 -23 435 0
514 8 870 82 336 70 600 165 889 320 77 41 151 83 165 93 14 9 65 43 113 74
262 173 522 436 715 724 346 517 500 1211 423 1912 -34 309 -83 511 -189 778
-12 29 -21 55 -21 57 0 3 425 5 945 5 520 0 945 -2 945 -4 0 -6 -115 -451
-140 -541 -11 -38 -60 -234 -110 -435 -49 -201 -99 -399 -111 -440 -11 -41
-72 -282 -135 -535 -62 -253 -125 -503 -138 -555 -323 -1278 -337 -1336 -331
-1374 15 -99 90 -166 184 -166 75 0 126 32 189 117 141 193 706 957 851 1151
254 342 420 566 601 811 242 327 640 862 721 968 39 51 114 152 167 226 53 74
122 168 153 208 151 200 330 439 384 513 33 46 93 128 133 182 39 54 135 185
211 289 161 221 175 239 384 519 87 116 189 254 227 306 39 52 101 138 140
190 198 268 271 375 281 410 22 74 -28 177 -105 214 -31 14 -144 16 -1210 16
-1024 0 -1176 2 -1176 15 0 8 32 105 71 217 100 286 137 392 224 643 42 121
102 294 135 385 32 91 109 309 170 485 61 176 120 345 132 375 11 30 53 150
93 265 97 278 207 592 240 685 15 41 63 179 107 305 112 324 187 537 247 705
45 126 52 153 49 205 -5 76 -30 114 -100 149 l-52 26 -1583 0 -1583 0 -39 -24
c-21 -14 -48 -37 -59 -51 -12 -15 -51 -115 -86 -223 -36 -109 -120 -357 -187
-552 -66 -195 -159 -467 -206 -605 -46 -137 -116 -342 -154 -455 -143 -419
-241 -708 -402 -1185 -91 -269 -207 -609 -258 -755 -102 -292 -114 -357 -82
-419 47 -90 156 -126 248 -81 62 30 79 64 164 320 39 118 154 460 256 760 102
300 253 745 335 990 81 245 223 666 315 935 92 270 203 598 247 730 44 132 84
243 87 248 10 10 2581 14 2581 4 0 -10 -54 -82 -189 -251 -98 -124 -232 -295
-435 -557 -66 -85 -161 -206 -211 -269 -193 -245 -306 -388 -455 -580 -234
-299 -404 -516 -476 -605 -35 -44 -109 -138 -165 -210 -256 -331 -323 -417
-404 -520 -47 -60 -99 -126 -113 -145 -15 -19 -81 -105 -147 -190 -67 -85
-177 -227 -245 -315 -68 -88 -167 -214 -220 -280 -90 -112 -304 -387 -430
-552 -30 -40 -111 -143 -179 -230 -69 -87 -168 -214 -221 -283 -53 -69 -133
-172 -179 -230 -45 -58 -117 -150 -159 -205 -95 -125 -276 -350 -315 -392 -19
-20 -78 -53 -171 -94 -146 -65 -307 -152 -411 -222 -208 -140 -418 -368 -482
-523 -20 -50 -27 -53 -44 -21 -20 38 -189 205 -294 291 -213 175 -456 320
-799 476 -109 49 -200 90 -203 90 -6 0 -285 123 -388 170 -33 16 -92 42 -130
58 -39 17 -114 51 -168 76 -54 25 -100 46 -103 46 -13 0 -397 197 -534 274
-436 246 -733 494 -962 807 -195 266 -333 567 -422 926 -122 486 -106 1107 41
1593 77 257 189 493 335 710 406 602 1044 999 1798 1119 216 35 365 44 612 38
253 -6 252 -6 473 -43 676 -110 1260 -450 1697 -989 80 -98 208 -284 208 -301
0 -7 -9 -19 -19 -26 -11 -8 -113 -104 -228 -214 -355 -342 -573 -544 -587
-544 -3 0 -21 25 -41 55 -92 145 -280 363 -420 488 -208 185 -443 313 -700
381 -155 42 -246 51 -480 51 -200 -1 -231 -3 -348 -28 -202 -43 -375 -115
-542 -225 -83 -55 -260 -229 -333 -327 -112 -151 -208 -377 -254 -600 -19 -95
-22 -141 -23 -345 0 -240 5 -290 47 -450 77 -296 301 -593 608 -807 184 -128
396 -247 645 -361 261 -119 511 -231 560 -250 28 -11 120 -52 207 -91 86 -39
159 -71 162 -71 12 0 459 -221 567 -280 265 -147 548 -344 761 -530 l48 -42
42 25 c80 47 182 158 192 211 6 28 2 36 -46 81 -352 331 -862 633 -1623 960
-244 105 -384 167 -555 247 -52 24 -111 51 -130 58 -19 8 -109 51 -200 96
-530 266 -799 533 -898 892 -24 90 -26 111 -26 292 0 145 5 218 18 284 68 349
255 620 526 764 182 97 417 147 645 139 236 -8 382 -44 580 -142 265 -132 459
-325 721 -721 125 -190 152 -215 239 -222 61 -5 98 11 165 71 107 97 274 251
399 372 75 72 172 164 216 205 280 261 474 446 498 478 38 50 37 116 -2 197
-36 76 -209 331 -309 454 -259 323 -560 575 -927 776 -384 211 -783 331 -1268
380 -174 18 -569 17 -720 -1z m7112 -1306 c-28 -79 -102 -291 -164 -473 -62
-181 -127 -368 -145 -415 -33 -88 -131 -367 -225 -640 -29 -85 -87 -252 -129
-370 -85 -244 -242 -694 -382 -1100 -103 -296 -112 -342 -77 -402 10 -18 40
-48 67 -65 l48 -33 1129 0 c621 0 1129 -2 1129 -5 0 -9 -403 -560 -508 -695
-15 -19 -65 -87 -112 -150 -198 -270 -260 -355 -389 -529 -75 -100 -155 -208
-178 -240 -23 -31 -113 -152 -200 -269 -243 -326 -284 -381 -493 -662 -107
-144 -211 -283 -230 -310 -19 -26 -78 -105 -130 -175 -52 -70 -258 -346 -457
-614 -200 -267 -431 -578 -515 -690 -84 -113 -183 -248 -220 -300 -38 -52 -68
-88 -68 -80 0 13 36 161 75 309 18 69 144 573 195 780 21 85 52 209 70 275 39
149 125 486 236 930 46 187 93 369 104 405 40 131 113 446 113 491 1 66 -41
135 -98 160 -41 18 -86 19 -1169 19 -619 0 -1126 3 -1126 6 0 3 20 29 44 57
23 29 74 93 112 142 116 152 211 276 284 370 39 50 92 117 118 151 26 33 110
141 187 239 154 196 208 264 276 351 25 33 95 122 155 199 61 77 142 181 180
230 39 50 144 184 235 299 90 115 237 304 327 420 90 116 182 233 205 260 23
28 56 69 72 92 17 23 118 154 225 290 107 136 264 335 348 443 84 108 180 230
212 271 82 104 235 301 400 515 77 99 196 252 264 340 69 88 153 195 186 238
34 42 63 77 65 77 3 0 -18 -64 -46 -142z m-4126 -5285 c101 -229 181 -503 212
-733 69 -512 -17 -1085 -227 -1505 -332 -664 -987 -1128 -1836 -1300 -239 -49
-449 -68 -747 -68 -353 1 -602 30 -920 110 -418 104 -850 309 -1174 558 -305
234 -529 466 -736 765 -65 94 -75 114 -64 125 8 7 104 85 214 173 110 88 245
197 300 242 55 45 127 103 159 128 33 26 101 82 152 125 l93 77 48 -67 c212
-300 369 -470 588 -634 237 -178 396 -263 666 -353 294 -98 687 -129 1028 -81
343 48 658 205 874 435 142 151 225 305 272 505 27 117 33 171 40 400 9 282
41 402 160 601 94 157 273 304 523 426 100 49 301 126 333 127 10 1 25 -20 42
-56z"/>
<path d="M779 2445 c-396 -65 -640 -253 -705 -543 -13 -57 -15 -103 -11 -191
8 -179 45 -261 166 -374 140 -129 291 -187 846 -323 342 -84 480 -209 446
-407 -18 -109 -77 -179 -195 -233 -180 -82 -498 -86 -741 -8 -113 36 -267 113
-357 179 -43 31 -82 53 -88 50 -13 -8 -140 -269 -140 -288 0 -50 277 -203 460
-256 173 -49 218 -53 540 -49 l295 4 100 36 c121 43 171 67 251 123 193 138
292 375 255 613 -49 314 -251 462 -811 596 -346 83 -474 132 -559 211 -67 62
-91 114 -91 194 0 362 680 477 1158 195 40 -24 77 -44 81 -44 7 0 131 289 131
307 0 16 -179 105 -283 142 -155 54 -262 72 -472 76 -135 3 -215 0 -276 -10z"/>
<path d="M21436 2450 c-451 -57 -815 -306 -1006 -688 -80 -162 -120 -344 -120
-552 0 -155 17 -263 60 -393 117 -349 430 -657 775 -762 160 -49 212 -55 485
-55 270 0 298 4 454 55 308 101 587 349 722 639 177 384 141 852 -91 1208
-176 269 -475 464 -815 533 -90 18 -367 27 -464 15z m372 -350 c179 -32 317
-105 453 -240 140 -138 216 -279 254 -469 23 -110 16 -300 -14 -416 -62 -237
-227 -443 -441 -550 -416 -209 -943 -92 -1195 265 -148 211 -201 435 -160 681
33 201 105 339 251 484 184 183 408 267 689 260 55 -2 128 -8 163 -15z"/>
<path d="M2929 2426 c-2 -2 -3 -547 -1 -1210 l2 -1206 180 0 180 0 0 852 c0
719 2 850 14 838 15 -17 33 -46 361 -590 127 -212 290 -481 361 -597 l129
-213 101 0 100 0 51 88 c27 48 70 121 95 162 25 41 74 125 110 185 36 61 125
211 198 335 74 124 151 254 171 290 21 36 80 134 131 219 l93 154 3 -861 2
-862 185 0 185 0 -2 1208 -3 1207 -164 0 -164 0 -97 -160 c-53 -88 -154 -257
-225 -375 -71 -118 -183 -305 -249 -415 -65 -110 -184 -308 -263 -440 -79
-132 -149 -240 -154 -240 -10 0 -102 146 -334 530 -63 105 -148 244 -414 683
-34 56 -107 173 -160 260 l-98 157 -160 3 c-87 1 -161 0 -164 -2z"/>
<path d="M7552 2388 c-29 -64 -162 -347 -224 -478 -31 -63 -90 -189 -133 -280
-43 -91 -119 -253 -170 -360 -51 -107 -123 -260 -160 -340 -37 -80 -118 -252
-181 -382 -63 -131 -114 -240 -114 -242 0 -3 -31 -69 -70 -147 -38 -77 -70
-143 -70 -145 0 -3 92 -3 205 -2 l205 3 46 100 c25 55 56 127 70 160 14 33 53
120 86 193 l61 132 656 -2 655 -3 138 -290 137 -290 205 -3 206 -2 -44 92
c-78 168 -353 750 -411 873 -31 66 -99 208 -150 315 -181 380 -349 738 -440
935 l-93 200 -195 3 -196 2 -19 -42z m249 -439 c23 -46 123 -264 224 -484 100
-220 199 -435 219 -477 l35 -78 -511 0 -510 0 5 28 c3 15 42 106 87 202 45 96
87 189 95 205 88 196 170 379 231 513 41 89 74 168 74 174 0 19 9 5 51 -83z"/>
<path d="M9970 1220 l0 -1210 187 2 187 3 0 368 -1 367 381 0 381 0 79 -112
c43 -62 160 -229 258 -370 l180 -258 210 0 c238 0 225 -6 160 83 -48 65 -135
187 -238 335 -43 63 -99 141 -122 175 -126 178 -152 217 -152 224 1 4 35 24
77 43 206 94 353 270 414 496 29 105 31 324 6 428 -72 290 -285 496 -608 590
-144 41 -230 46 -831 46 l-568 0 0 -1210z m1258 851 c160 -48 276 -135 334
-251 61 -122 60 -330 -2 -456 -56 -115 -174 -206 -323 -253 -82 -25 -82 -25
-487 -26 l-405 0 2 440 c0 242 2 471 2 508 l1 69 403 -4 c379 -4 406 -6 475
-27z"/>
<path d="M12755 2420 c-3 -5 -5 -79 -4 -164 l1 -156 421 -2 422 -3 0 -1040 0
-1040 188 0 188 0 -1 1043 0 1042 420 0 420 0 0 165 0 165 -1024 0 c-641 0
-1027 -4 -1031 -10z"/>
<path d="M17040 2426 c0 -3 31 -72 69 -153 38 -81 110 -240 161 -353 50 -113
132 -290 180 -395 48 -104 135 -296 193 -425 91 -204 152 -337 308 -680 19
-41 68 -149 109 -240 l76 -165 185 -3 186 -2 61 127 c33 71 69 151 80 178 11
28 32 73 45 100 26 53 144 310 350 765 137 302 474 1039 530 1163 26 56 33 79
24 83 -7 2 -95 3 -197 2 l-184 -3 -113 -250 c-62 -137 -147 -322 -187 -410
-97 -210 -282 -615 -336 -735 -94 -207 -242 -525 -249 -533 -6 -6 -54 94 -186
393 -26 58 -78 174 -116 257 -38 84 -101 224 -140 310 -39 87 -93 205 -119
263 -27 58 -71 157 -99 220 -27 63 -88 198 -134 300 l-83 185 -207 3 c-114 1
-207 0 -207 -2z"/>
<path d="M23987 2424 c-4 -4 -7 -549 -7 -1211 l0 -1203 855 0 855 0 0 165 0
165 -665 0 -665 0 -2 1043 -3 1042 -181 3 c-99 1 -183 -1 -187 -4z"/>
<path d="M26094 2417 c-2 -7 -3 -80 -2 -162 l3 -150 423 -3 422 -2 1 -348 c0
-329 1 -346 17 -323 23 33 61 122 62 144 0 9 8 17 18 17 12 0 22 -17 36 -62
25 -78 102 -194 169 -253 28 -25 55 -45 59 -45 5 0 8 196 8 435 l0 435 425 0
425 0 0 165 0 165 -1030 0 c-834 0 -1032 -2 -1036 -13z"/>
<path d="M27243 965 c-76 -67 -183 -241 -183 -299 0 -9 -9 -16 -20 -16 -11 0
-20 7 -20 15 0 24 -50 143 -66 156 -12 10 -14 -46 -14 -400 l0 -411 185 0 185
0 0 48 c4 398 0 952 -8 952 -4 0 -31 -20 -59 -45z"/>
</g>
</svg>
